<?xml version="1.0" encoding="utf-8"?>
<svg version="1.1" xmlns:xlink="http://www.w3.org/1999/xlink" width="16px" height="16px" xmlns="http://www.w3.org/2000/svg">
  <g transform="matrix(1 0 0 1 -160 -1536 )">
    <path d="M 168 1536  C 172.48 1536  176 1539.52  176 1544  C 176 1548.48  172.48 1552  168 1552  C 163.52 1552  160 1548.48  160 1544  C 160 1539.52  163.52 1536  168 1536  Z " fill-rule="nonzero" fill="#ffffff" stroke="none" />
    <path d="M 168 1536.5  C 172.2 1536.5  175.5 1539.8  175.5 1544  C 175.5 1548.2  172.2 1551.5  168 1551.5  C 163.8 1551.5  160.5 1548.2  160.5 1544  C 160.5 1539.8  163.8 1536.5  168 1536.5  Z " stroke-width="1" stroke="#d7d7d7" fill="none" />
  </g>
</svg>