<?xml version="1.0" encoding="utf-8"?>
<svg version="1.1" xmlns:xlink="http://www.w3.org/1999/xlink" width="17px" height="17px" xmlns="http://www.w3.org/2000/svg">
  <g transform="matrix(1 0 0 1 -141 -1472 )">
    <path d="M 149.5 1472  C 154.26 1472  158 1475.74  158 1480.5  C 158 1485.26  154.26 1489  149.5 1489  C 144.74 1489  141 1485.26  141 1480.5  C 141 1475.74  144.74 1472  149.5 1472  Z " fill-rule="nonzero" fill="#ffffff" stroke="none" />
    <path d="M 149.5 1472.5  C 153.98 1472.5  157.5 1476.02  157.5 1480.5  C 157.5 1484.98  153.98 1488.5  149.5 1488.5  C 145.02 1488.5  141.5 1484.98  141.5 1480.5  C 141.5 1476.02  145.02 1472.5  149.5 1472.5  Z " stroke-width="1" stroke="#d7d7d7" fill="none" />
  </g>
</svg>