<?xml version="1.0" encoding="utf-8"?>
<svg version="1.1" xmlns:xlink="http://www.w3.org/1999/xlink" width="123px" height="57px" xmlns="http://www.w3.org/2000/svg">
  <defs>
    <filter x="345px" y="1829px" width="123px" height="57px" filterUnits="userSpaceOnUse" id="filter27">
      <feOffset dx="0" dy="0" in="SourceAlpha" result="shadowOffsetInner" />
      <feGaussianBlur stdDeviation="2.5" in="shadowOffsetInner" result="shadowGaussian" />
      <feComposite in2="shadowGaussian" operator="atop" in="SourceAlpha" result="shadowComposite" />
      <feColorMatrix type="matrix" values="0 0 0 0 0  0 0 0 0 0  0 0 0 0 0  0 0 0 0.349019607843137 0  " in="shadowComposite" />
    </filter>
    <g id="widget28">
      <path d="M 350 1866.05882352941  C 350 1866.05882352941  350 1839  350 1839  C 350 1836.23857625085  352.238576250846 1834  355 1834  C 355 1834  458 1834  458 1834  C 460.761423749154 1834  463 1836.23857625085  463 1839  C 463 1839  463 1866.05882352941  463 1866.05882352941  C 463 1868.82024727857  460.761423749154 1871.05882352941  458 1871.05882352941  C 458 1871.05882352941  377.829545454548 1871.05882352941  377.829545454548 1871.05882352941  C 377.829545454548 1871.05882352941  367.375000000003 1880.45454545455  367.375000000003 1880.45454545455  C 367.375000000003 1880.45454545455  357.829545454548 1871.05882352941  357.829545454548 1871.05882352941  C 357.829545454548 1871.05882352941  355 1871.05882352941  355 1871.05882352941  C 352.238576250846 1871.05882352941  350 1868.82024727857  350 1866.05882352941  Z " fill-rule="nonzero" fill="#ffffff" stroke="none" />
    </g>
  </defs>
  <g transform="matrix(1 0 0 1 -345 -1829 )">
    <use xlink:href="#widget28" filter="url(#filter27)" />
    <use xlink:href="#widget28" />
  </g>
</svg>