<?xml version="1.0" encoding="utf-8"?>
<svg version="1.1" xmlns:xlink="http://www.w3.org/1999/xlink" width="25px" height="25px" xmlns="http://www.w3.org/2000/svg">
  <g transform="matrix(1 0 0 1 -145 -1322 )">
    <path d="M 157.5 1322  C 164.5 1322  170 1327.5  170 1334.5  C 170 1341.5  164.5 1347  157.5 1347  C 150.5 1347  145 1341.5  145 1334.5  C 145 1327.5  150.5 1322  157.5 1322  Z " fill-rule="nonzero" fill="#ffffff" stroke="none" />
    <path d="M 157.5 1322.5  C 164.22 1322.5  169.5 1327.78  169.5 1334.5  C 169.5 1341.22  164.22 1346.5  157.5 1346.5  C 150.78 1346.5  145.5 1341.22  145.5 1334.5  C 145.5 1327.78  150.78 1322.5  157.5 1322.5  Z " stroke-width="1" stroke="#bcbcbc" fill="none" />
  </g>
</svg>