<?xml version="1.0" encoding="utf-8"?>
<svg version="1.1" xmlns:xlink="http://www.w3.org/1999/xlink" width="25px" height="25px" xmlns="http://www.w3.org/2000/svg">
  <g transform="matrix(1 0 0 1 -145 -1386 )">
    <path d="M 20.60546875 10.595703125  C 20.80078125 10.400390625  20.8984375 10.15625  20.8984375 9.86328125  C 20.8984375 9.55946180555554  20.80078125 9.30989583333331  20.60546875 9.11458333333331  L 19.1243489583335 7.64973958333331  C 18.9181857638887 7.44357638888891  18.6740451388887 7.34049479166669  18.3919270833335 7.34049479166669  C 18.1098090277778 7.34049479166669  17.8656684027778 7.44357638888891  17.6595052083335 7.64973958333331  L 11.0188802083335 14.2740885416667  L 7.34049479166651 10.595703125  C 7.13433159722217 10.3895399305555  6.89019097222217 10.2864583333333  6.60807291666651 10.2864583333333  C 6.32595486111131 10.2864583333333  6.08181423611131 10.3895399305555  5.87565104166652 10.595703125  L 4.39453125 12.060546875  C 4.19921875 12.255859375  4.1015625 12.5054253472222  4.1015625 12.8092447916667  C 4.1015625 13.1022135416667  4.19921875 13.3463541666667  4.39453125 13.5416666666667  L 10.2864583333335 19.43359375  C 10.4926215277778 19.6397569444445  10.7367621527778 19.7428385416667  11.0188802083335 19.7428385416667  C 11.3118489583335 19.7428385416667  11.5614149305557 19.6397569444445  11.767578125 19.43359375  L 20.60546875 10.595703125  Z M 23.3235677083335 6.2255859375  C 24.4411892361113 8.14073350694446  25 10.2322048611111  25 12.5  C 25 14.7677951388889  24.4411892361113 16.8592664930555  23.3235677083335 18.7744140625  C 22.2059461805557 20.6895616319445  20.6895616319443 22.2059461805555  18.7744140625 23.3235677083333  C 16.8592664930557 24.4411892361111  14.7677951388887 25  12.5 25  C 10.2322048611113 25  8.14073350694434 24.4411892361111  6.2255859375 23.3235677083333  C 4.31043836805566 22.2059461805555  2.79405381944434 20.6895616319445  1.67643229166652 18.7744140625  C 0.558810763888687 16.8592664930555  0 14.7677951388889  0 12.5  C 0 10.2322048611111  0.558810763888687 8.14073350694446  1.67643229166652 6.2255859375  C 2.79405381944434 4.31043836805554  4.31043836805566 2.79405381944446  6.2255859375 1.67643229166669  C 8.14073350694434 0.558810763888914  10.2322048611113 0  12.5 0  C 14.7677951388887 0  16.8592664930557 0.558810763888914  18.7744140625 1.67643229166669  C 20.6895616319443 2.79405381944446  22.2059461805557 4.31043836805554  23.3235677083335 6.2255859375  Z " fill-rule="nonzero" fill="#0099ff" stroke="none" transform="matrix(1 0 0 1 145 1386 )" />
  </g>
</svg>